/* XPM */
static char *result[] = {
/* columns rows colors chars-per-pixel */
"73 73 237 2 ",
"   c #000001",
".  c #00000D",
"X  c #000014",
"o  c #00021B",
"O  c #050C1E",
"+  c #090E1E",
"@  c #0D101F",
"#  c #07121F",
"$  c #13141F",
"%  c #16181F",
"&  c #000322",
"*  c #020D21",
"=  c #0A0E20",
"-  c #00042A",
";  c #031222",
":  c #0E1121",
">  c #001A27",
",  c #151522",
"<  c #181623",
"1  c #161923",
"2  c #1C1A25",
"3  c #141E2C",
"4  c #100A21",
"5  c #241C24",
"6  c #281F28",
"7  c #321F22",
"8  c #002437",
"9  c #1C262F",
"0  c #2D2226",
"q  c #2B242A",
"w  c #262128",
"e  c #32252A",
"r  c #352D2D",
"t  c #3C2B2B",
"y  c #392626",
"u  c #39312F",
"i  c #372C31",
"p  c #3A3233",
"a  c #343135",
"s  c #422E2C",
"d  c #482F29",
"f  c #4B332D",
"g  c #45332E",
"h  c #5A372B",
"j  c #5B3A2E",
"k  c #55372D",
"l  c #433533",
"z  c #4B3432",
"x  c #4A3E38",
"c  c #583C35",
"v  c #543A34",
"b  c #673F30",
"n  c #5C423B",
"m  c #58463C",
"M  c #4D433D",
"N  c #63443B",
"B  c #6A4A3E",
"V  c #674538",
"C  c #744935",
"Z  c #7B4C34",
"A  c #754A37",
"S  c #7E513C",
"D  c #6E432F",
"F  c #3F3E41",
"G  c #4C4747",
"H  c #674C41",
"J  c #704D41",
"K  c #6A5747",
"L  c #7B5444",
"P  c #725C4B",
"I  c #785744",
"U  c #7F634C",
"Y  c #77604F",
"T  c #7E6452",
"R  c #767168",
"E  c #993B29",
"W  c #A43D2A",
"Q  c #9B422E",
"!  c #9C4631",
"~  c #9D4A34",
"^  c #9E4D38",
"/  c #86533A",
"(  c #955C3E",
")  c #9C5C3E",
"_  c #975439",
"`  c #814E36",
"'  c #A6412B",
"]  c #A44B35",
"[  c #AB4C35",
"{  c #AB4E38",
"}  c #A54631",
"|  c #AD5237",
" . c #A3543C",
".. c #AD5239",
"X. c #AB5B3C",
"o. c #A4583A",
"O. c #B1543A",
"+. c #B55C3E",
"@. c #B25634",
"#. c #9C603F",
"$. c #AA643D",
"%. c #B7663E",
"&. c #CA7339",
"*. c #E47D3B",
"=. c #825948",
"-. c #865B47",
";. c #A45C40",
":. c #B45E42",
">. c #81644C",
",. c #86694F",
"<. c #9C6344",
"1. c #93634C",
"2. c #9A654A",
"3. c #98674A",
"4. c #866A53",
"5. c #8A6C54",
"6. c #826856",
"7. c #9C6951",
"8. c #976851",
"9. c #8E7158",
"0. c #9D7B5D",
"q. c #95775C",
"w. c #AC6342",
"e. c #AB6A44",
"r. c #A46C4C",
"t. c #AD6C4B",
"y. c #A46546",
"u. c #B36344",
"i. c #BB6542",
"p. c #BA6A44",
"a. c #B36D4B",
"s. c #B66A48",
"d. c #A9704E",
"f. c #B4724C",
"g. c #BC744C",
"h. c #BD7649",
"j. c #A46E51",
"k. c #AE6E51",
"l. c #A57252",
"z. c #AC7454",
"x. c #A57C5B",
"c. c #B37554",
"v. c #BC7554",
"b. c #B37955",
"n. c #BC7B55",
"m. c #B57E5B",
"M. c #BB7A59",
"N. c #8A7664",
"B. c #B17C61",
"V. c #C2754A",
"C. c #C57A4E",
"Z. c #CA7B4E",
"A. c #C67647",
"S. c #D87D43",
"D. c #C37B52",
"F. c #C97D51",
"G. c #C07556",
"H. c #C06E4A",
"J. c #A9835F",
"K. c #BB835C",
"L. c #BB875D",
"P. c #9B8872",
"I. c #A48263",
"U. c #AA8565",
"Y. c #BB8561",
"T. c #BD8A63",
"R. c #B88F6A",
"E. c #B48A66",
"W. c #BC926B",
"Q. c #B99068",
"!. c #A68E75",
"~. c #B79676",
"^. c #A3907E",
"/. c #CA824C",
"(. c #D7854A",
"). c #C58256",
"_. c #CB8254",
"`. c #C3835C",
"'. c #CA8559",
"]. c #C5895E",
"[. c #CB8C5E",
"{. c #D98B54",
"}. c #DA8B54",
"|. c #CB915F",
" X c #DB925A",
".X c #E28647",
"XX c #E28B53",
"oX c #E2935A",
"OX c #C38660",
"+X c #C38D64",
"@X c #CC8E62",
"#X c #C18E69",
"$X c #C49265",
"%X c #CA9265",
"&X c #C3946B",
"*X c #CC946B",
"=X c #C4996E",
"-X c #CB9A6E",
";X c #D29669",
":X c #D29C6E",
">X c #DB9D6D",
",X c #D29466",
"<X c #C59A72",
"1X c #CB9D72",
"2X c #C99874",
"3X c #D39E72",
"4X c #D99F72",
"5X c #D08F62",
"6X c #DEA26E",
"7X c #D1A06F",
"8X c #CEA176",
"9X c #CAA37C",
"0X c #C7A47D",
"qX c #D3A275",
"wX c #DBA474",
"eX c #D4A579",
"rX c #D9A77A",
"tX c #D6A97B",
"yX c #DAAA7B",
"uX c #D7A977",
"iX c #DFB07F",
"pX c #E1A472",
"aX c #E1AE7D",
"sX c #E2B07F",
"dX c #BFA481",
"fX c #C8A883",
"gX c #D5AB83",
"hX c #CEB48D",
"jX c #D8B388",
"kX c #D6B892",
"lX c #C7BB9A",
"zX c #E5B382",
"xX c #E3B689",
"cX c #DFC49A",
"vX c #E7C79B",
"bX c #E2CBA3",
"nX c #E5D5AD",
/* pixels */
"@ @ @ @ = : : = $ + + : = : + : + $ : @ : : , : : : : : = + , , : : : : : : = : = + @ @ @ @ 4 @ 4 @ @ $ = = @ + @ @ @ $ @ @ @ @ , + $ + $ $ $ = , ",
"+ + O + O = = O + + O + = + + + + ; + , , , , , < , , , , , , $ , , , , , , , , , = = = + + O O + + O O = O + + + + O + O + + + + + , , , , $ , , ",
"+ + + + + O + O + O + + = = + + + + @ @ < < $ $ , , , , , 1 < , , , , , , , , , , : = * = = O + O + + + O + + + + + + # # . O + + : 4 < , , , , , ",
"+ + + + + O + + + + + + O O = + = * @ $ < % % < , , , , < , < , , , , 1 < , , , , , : = * = + O + + + + + + + + + + + O # + + + = = , < , , , , , ",
"+ + + + + + + + + 4 + + O + + + = : : : < , 1 , , , , * - & - o o * : 1 < < , , , : = + O + + + + + + + + O + + + + + + @ @ + + + : , < , , , < , ",
"# + + # + + + + + + + + + + O + + + * : , 1 , , , , < < , , < 1 < , 1 1 , < < $ $ , @ + + + + + = + + + + + + + + + + + # # @ + = : , < , , , , , ",
"+ O + + + + # + + + + + O + + + + + + $ , , , , : : : l c J J J n c q : O @ $ , , @ @ + + + + + + O + + + + + + + + + + + + + + O = , < < , < , , ",
"+ + + + + + + + X + + + O + + + + + + @ , 1 , , : 3 3 c J -.-.-.L B t 1 O , $ , , + = + + + + # + O + + + + O + + + + + + # @ X + + , , < < < $ , ",
"+ @ + + # $ + + @ @ $ # + + + + + + @ @ $ < $ , ; 3 3 B 1.j.z.l.1.-.v ; - ; ; < < : = = + + + + + + + + + + + + + + + + + + + + + = , , , < < , , ",
"+ + + + + . + + + @ X + + + + @ O + # $ , % $ 5 7 s g L 2.b.b.c.j.1.N p q i i q 2 , = + # # O + + + + @ + + + + + + + O + O + + + : , , , < , , , ",
"+ + + + + + + + + + + + + + + + + + @ @ , * o 7 d C S y.a.n.D.v.k.7.=.B J J N i w * o X o o + + + + + + + + + + + + + + + + + + = = : , , 1 , 1 , ",
"+ + + + + + + + + + + + + + O + = + # $ , * o c S a.V.F.F.F.F.Z.h.t.k.k.z.z.7.n l , o = + @ * : + + + + # + O + O + + @ + + + + * : , < , , , , < ",
"+ + + + + + + + + + + + + + O + + + + 4 w u M U 3.n.`.'.`.).F.F.g.f.f.z.c.c.j.I N z g f t 0 * o . o O O + + + + + @ + + + + + + + : , < , , , , < ",
"+ + + + + + + + + + + + + + + + O O @ $ a K 5.E.E.Q.Q.W.W.$X@X).C.g.f.t.t.t.y.3.-.-.=.=.B v * * # # # + + + + + O @ + + + + + + + = , < , , , , < ",
"@ X @ + # @ . + + # @ + + + + + + O 4 % l P 0.W.=X=X=X2X<X<X#X'.K.g.c.c.f.f.a.y.r.1.1.3.L V r q 6 q 5 $ @ + + + + + + + + + + + = : : < < , , < , ",
"@ + + + # # # + + + + + + + + + + O + % x U x.2X1XeXrXyXyXrX2X#XL.L.L.].].Z.V.f.t.r.y.r.3.-.B N c n z y + X + + + O + + + + + + = = , < 1 , < , , ",
"+ + + + + + + + + + + + + + @ + + o o O u I z.-X1XeXyXgXaXyX3X2X&X&X&X*X@XZ.A.p.g.f.f.f.t.2.=.=.L =.H s X X o o o * = = = + + + + @ : 1 < < , , , ",
"@ # + + + + + + + + + + + + + @ @ o o o @ A e.%X&X8XtXyXgXyXeXqXqXqXqXqX%XA.A.A.h.g.g.V.c.k.7.8.7.7.L z . . X X X & = = = = + + O @ : 1 < < , , < ",
"+ + + + + + + + + + O + + + + O + 2 l m ,.l.g.).M.T.#X3XqXwXwXqXqXrXyXuXqX[.[.[.[._.F.F.F.D.v.v.M.G.r.-.N c N c z 5 o X o * O O + : : , , , , , , ",
"+ + + + + + + + # + + O + + + o + q H 4.W.$X'.V.a.t.a.D.[.,X;X,X*X1XwXyXuXqXqX7X:X#X'.Z.A.V.D.D.D.D.f.r.1.1.1.L J q X X X X o o + : , , , , , , , ",
"+ + O + + + + + O @ + + + + = o * u Y x.yXwX[.X...Q W @.p.g.g.g.b.m.3XyXuXqXqXqX-X&X+X).F.D.`.F.F.Z.D.v.z.b.c.7.1.b g t z t 5 , * * , , , , , , < ",
"O + + + + + + + + + + + + + + o + a P 0.qX;XK.] ] ] [ ..X.w.w.w.y.k.1XyXuX|.%X%X%XT.T.L.+XT.T.`.F.F.V.f.k.t.d.y.1.L H H B c e 2 o * @ , , < 1 1 , ",
"@ @ + @ @ + + @ @ = = : : + : o + p Y 0.*X].a.Q ] ....{ ] ! ! } ! ) 2XyXuX/.&././.`.$X&X*X&X#XOXn.D.h.g.f.g.s.t.y.2.3.8.8.-.n s * * ; : : < , : , ",
"@ $ $ @ $ $ @ $ : @ : , : : : o , l T x.@X).s.} ] ....{ { { { { ! ;.1XyXwX(.S.(.(.].+X*X2X2X#X#Xn.D.C.C.D.F.C.f.t.j.l.l.j.1.B z * - * * * : @ @ @ ",
"$ $ $ $ : , : : , : , , , , : & , l 6.x.5XOXs.{ ........{ O.O.O.!  .2XyXpX.X.X.X(.).OX;X*X*X@XM.f.h.D.F.'._._.g.a.c.b.c.c.j.L N i w q q 5 = + + + ",
"% % $ , < , , , , , , , , 2 < X   8 R ^.gX2XG.W [ O...{ [ [ [ ' E ! D.5X;X6XpX6X,Xc.a.s.s.s.s.:.+.O.G.%XwX#XK.g.V.V.V.V.V.c.<.1.1.1.8.L c & O O + ",
", , , , < , < < , , , $ , < < * , F R dXkXgXG.W [ { ............~ ^ g.'.,XyXyXyX1Xr.;.| { O.{ { [ ' M.3XyX&XK.D.Z.Z.Z.F.Z.g.r.r.z.z.c.1.J & * O + ",
", , , , , < , < < , , $ $ X < J R.&X~.~.gX1X'.@.| { [ :.M.G.OXD.K.OX:X3XuXyXqX2X$Xg.p.i.i.i.:.O.} ' v.*XrXrX3X3X3X4X4X,X_.F.g.v.n.F._.t.L * ; o X ",
", , , , , , 1 < 1 1 , , $   , >.gXgXyXuXwX;X'.%.X.] } s.OX;X*X*X;X-XqXuXyXtXqXT.L.F.V.g.V.V.u.:.] ' v.*XrXyXyXgXtXyXrX3X'./.C.C.C.)./.t.S ; # O O ",
"1 < , < , , , , , , , , $   = >.yXzXyXyXuX-X].t.;.Q E a.*X4XwXwXqXqX8X1XqXyXqXT.Y.K.M.n.n.n.c.;.! E k.*XyXyXrXrXeX1X2X*X'._.Z.Z.C.C.g.( D ; ; o O ",
", < < < 1 1 $ % , , , , ,   < T rXsXyXyXyX3X$Xz.r._ ^ b.*XrXyXrXeX8X=X=X-XrXeXW.T.Y.K.L.Y.T.m.k.;.^ M.*XyXyXeXeX8X<X$X#X'._.Z.Z.A.g.t.Z c ; O O O ",
"< , < < , % $ $ , , , < , . : T rXgXyXyXyXqX2XT.K.z.c.+X3XgXaXyXeX1X%X%X;XtXrX-X&XW.W.$X$X&X#XY.c.c.+X1XyXgXyXeX1X#X+X)._._.Z.F.Z.h.#.j s O O O O ",
", < , , , 1 , , , , < 2 9 8 G q.uXiXtXuXrXyXyXrXyXrXyXyXyXyXyXrX1X$X{.(. XyXuXyXrXyXyXyXuXyXyXyXyXrXyXrXyXyXrX2X&X).C.C.Z.A.C.F.Z.e.C X X = + + + ",
", , < , , , , , , , < - a R P.~.6X6X:X8XrXyXyXyXgXjXjXgXqX3X4X3X$X].(.(.,XyXyXyXyXgXyXyXyXyXuXyXwXwX6X>X:XqX3X#XL.d.w.w.e.e.e.e.e./ h X o + + + + ",
", , , , , , , , , O 3 - G lXnXvXoX.X).].rXgXyXeX1XhXkXjX;XF.C.C.C.C./.'.%XuXyXyXyXyXrXrXyXyX7X%XA.S.S.Z.C./.C.t.<.k , o , < , , , : # + + + + + + ",
"1 , , 1 , , , , $ O 1 - G lXbXvX{.(.].*XrXaXgXeX2XfXhX1X`.p.%.p.p.p.g.v.].*X1X8X8XeXeX3XqXqX%XL.h.&.&.%.%.p.e.#./ y X X o o o o o o X $ @ + + + + ",
", , , $ , < , < < O , 3 G ~.kXgX|.|.Q.-XrXyXyXeX2X~.&Xm.k.:.o.X.X.X.:.w.t.z.m.#X&X1X1X&X$X$XT.b.$.$.o.) ( ( ( / C y o & - & & & X o * @ + + + + + ",
", , , 1 , , < < , + < 9 M U.<X1X=X8X8XuXuXuXyX3X~.b.c.O. .] ! ~ ~ ~ ] ] } !  .c.Y.&X&XK.K.K.b.r.S C h k f f f g s w , : , < , , $ 4 : + O + + + + ",
"< , , $ % < , , , + < > x R.qXyXeXuXuXuXyXaXyX1X$Xc.g.+...{ ] { ]  .{ { ] ]  .k.m.<X*X_./._.f.2.V j y y t y y e 0 2 , : < , , , $ @ @ + + + + + @ ",
", , 1 , , < $ < , o & o a W.rXaX6X7X7X8XyXyXyX-XT.u.u.+.O.O.{ ..| | { { O.i.i.v.M.L.K.e.$.%.<.Z e 1 o * O O ; O ; , , < < , , , $ @ @ + + + + + + ",
", , 1 , , , < < 1 X X X 3 Q.wXpX X{.|.%XuXjXiX-Xm. .X.O.O...O.[ [ { [ [ +.V.Z.C.V.z.3.Z D Z b k 5 < * ; ; ; ; : : , < , , , 1 < , : : = + + + + = ",
", , , , , 1 : o , v H P 5.0XjXaX X{.|.-XuXyXyX+Xa.Q [ { ..O.:.:.u.w.:.+.%.a.a.a.y.Z j X o X o o = , < , 1 % , 1 , < 1 , , , 1 , : : = * + + + + + ",
"< < , , < < * X , P 9.J.W.kXcXvX>X>X:XqXyXyXwXn.t.Q [ { { O.s.G.c.c.H.H.w.S Z S Z j f o & & * * , , < % $ 1 , , , , < , 1 , 1 , , : + + + + O + + ",
"< < , , , 1 o X , 5.U.1XuXcXcXcXyXwXyXtXyXqX;Xg.w.~ ] { [ ..G.OXM.M.C.H.X.y > r y 0 w < : , , < , , % < $ 1 1 , , , , , $ 1 % 1 : : @ + + O O + + ",
"< < < < , , o X , 5.U.qXuXhXhXhXyXyXqXuX=X$XK.$.;.^ ! ! E ~ M.Y.T.E.c.e._ O X * O ; : , 1 < < < , < , < < < < , , < < < 1 , , , , : : + + + + * O ",
"< , , < , , o X , 5.U.8XuXfXfXfXrXtXqX-X$XL.n.$.w.;.;.^ ^ ^ c.Y.E.B.r.( Z + X + # @ @ , < < < $ , , < < < < , , , , < < , , , , : : = * = + = = = ",
"@ : : = : : X . @ 4.I.8XuXgXtXgXrXqX=X%X(.S.S./.).$X2X%XD.D.F.F.v.d.A k y : * = @ ; @ : : = @ @ @ : = : 4 + : : = + : : $ @ + + : : @ @ , : = : : ",
"+ + = + * = X . + 4.I.qXuXyXyXtXyXqX*X,X.X.X.X{.@X1XqX3X@XC.Z.C.t.<.c , X , , , , @ + + + O + + + + * = + = = = + + + + + + + + + @ @ , , , , , , ",
"+ + + * = + X . + ,.J.8XrXoXXXoXyXtXqXqXpX6XpX:X*X#X,X).2.Z C Z b k q * & , < $ , @ = + + + O + + + + + + + + + ; + + + + + + + + @ , , , , , , , ",
"+ + + + + + o . + ,.I.9XeXXX*.XXyXgXyXyXrXyXyX8X&XD.).e.C < o , , , < 1 < , , < , , + + O + = O + = + + * + + = + + + + + + + + = + $ , , , < < < ",
"= + = + + + o   X 4.I.0XtX{.*.{.yXtXrXrX8XeX8X=XT.f.f._ k & X X & o * < < < < $ $ @ 4 + = + + = = + = + + = + * + + + + + + + + = $ $ , , , , , , ",
"+ + = + ; : X   = N.!.dXfXW.T.&XtXeX<X&XY.K.Y.m.l.-.S k t , : , , , , , < < < , < : + = O = = O + + * + + = + + + + + + + + + O + + $ , 1 , 1 , , ",
"= + O = O o O X a N.!.dXfX0XW.1XtXqX=XT.b.b.b.l.3.B V t w < , $ , , , < < < , , $ @ @ + = + = + + = = + = + = + + + + + + = + + = @ , , , , , , , ",
"= + = + & X u m P 0.~.dXfXtXuXuXtX8XE.J.<.) <./ A g 0 ; : < , $ < < , , , , < , , @ 4 + O + O = = + O + = + O = + + + + + + + = + @ $ , , , , , , ",
"O + = + o X m T 0.~.<XfXfXtXuXyXyXeXE.0.Z Z ` D j w % o : , < , , < < , , , < $ < : + + O = = O + + + = O O = O + + + + = + * + + @ , 1 1 , , < , ",
"= + + = X   >.T.eXyXrXyXrXyXyXyXyX1XI.5.$ X & , 1 1 , $ , , < , , , , , , < < < $ : : + = + + = + = = + = + + = + + + + + = + + * + , , , , , < , ",
"+ = = + X   >.W.gXaXyXyXyXaXyXqXW.E.9.P o X o & - = : 1 < 1 < < , , , % 1 , , $ $ @ @ = + = = + + = + + * + * + + # + + + + + + = @ , < , , < < , ",
"O + + = X   U Q.yXaXyXuXyXsXyX8Xq.6.K M * X & ; : , , , < 4 3 , , , , $ , , 1 < < @ @ + + + + O + + = + + @ + + + + + + + + + + + + $ , , , 1 , < ",
"= + + + X   U R.yXyXyXuXuX8X=XI.a - & & < 1 < < 1 , , , , , , , , , , , < $ $ % , @ 4 + = + + = = + + * + : * @ + + + @ + + + + + : $ , , , , , , ",
"+ = = + X   U R.yXyXuXyXyXE.I.>.a ; = = < < , , , < , , , , < 1 , , , $ % < $ < < : + + O = = + = + + * + + + + + + + + + + + + + @ $ < 1 , , , , ",
"= = + = X   U R.uXuXuXsXyX9.M ; : & O = < 1 , , 3 1 , , , < < 1 , , , , 1 < $ < $ : + = + = * + + + = + + + + @ + + + + + + + + * @ , , , , , , < ",
"O + + + X   U R.yXiXsXzXsX5.r . = * * = , < , < , < < , < 1 , , , , 3 1 , , < % < : @ + + + + + = + = + + + + * + + + + + + + + + @ $ , , , < , < ",
"+ = = + X   >.$XyXeXW.=XQ.B X   O + @ : , , , , , , , , , , < , , < , , , $ $ < , @ + = = O + = = O + = + + + + + + + + = + + + + = , 1 , , < , , ",
"= O O = X   4.=XgXW.0.5.>.l X X + + @ : , , , < , , , , , , , , , , < < < , , , $ : = + + = + 4 + = O + + + # + + + + + + + * + + = , , , , < , , ",
"+ = + + X   ,.W.yXI.P a * o + O + + + $ , , , , < , , , , < , , $ $ , < < , , , , : : = O + + + = + + + + * + + + + + @ O + + + + @ $ , , 1 , , , ",
"+ + O + X X m 5.0.P x * X o + + + + + $ , < , , , , , , < , , , , , , , , , , , : : + + + + + + + = + O O + + = O O + + + O + + + @ $ , < , , < < ",
"= + O + o X x H P M p 5 = O + + * + + $ < , < < < < , , , < < < < < , < < < , , , : @ + + + + + + = + + + + + O O O + + + + + + + @ $ < , , $ < , ",
"+ + + + * O 2 q r w 2 : = = O + @ + + , < < < , , , , < , , , < < < , , , , , 1 , $ @ + + + + + O + + + + + + O + + @ + + + + + + @ $ < < < < , , ",
"+ + + + @ + + + + O + + + + = + + # @ , , < 1 , , , , , , < < , , , , , , , , 1 , @ @ + + + + + + + + + O + + + + + + + + + * = + $ , , 1 1 < , , ",
"@ 4 @ @ @ @ # o o * + + : = = : : + + $ + , @ @ : : : : : : : : , @ : : : : : : : @ @ @ @ @ @ @ @ @ @ : + + @ @ 4 = 4 + @ = : : + + = , : : : : @ ",
"@ @ : @ $ @ @ , : , : @ , = = = , : : + + + @ @ @ @ @ @ @ + = : + @ # @ @ @ @ @ @ @ @ : , : @ : @ $ : : : @ $ @ , : @ @ : @ : : : + + @ @ + : : @ ",
"$ $ = , $ $ @ $ : , , , : , , , , = , + + + + @ + @ + @ + # + + # + + @ + # + @ @ @ : , , , , : 4 $ $ $ , @ , , $ $ $ $ $ , : : , , $ + + + + + + ",
"< < < , , , , , < $ , , < , , < 1 , : @ @ @ + + + + * # + + * + = = * = = = + + = = : , , 1 , < < < , , < < < < , , , < , , , , , = + + + + + + + "
};
