/* XPM */
static char *_65bbfe54c4346cefba9b82cd9ecbb98wLkN1bJudcExl1Qy[] = {
/* columns rows colors chars-per-pixel */
"73 73 8 1 ",
"  c black",
". c #27211F",
"X c #5D5F51",
"o c #9C9D83",
"O c #161412",
"+ c #383132",
"@ c #4A3F3C",
"# c #1C211B",
/* pixels */
"                                                                         ",
"                                                                         ",
"                                                                         ",
"                                    .........                            ",
"                                    .........                            ",
"                                    .........                            ",
"                              ...XXXXXXXXXXXXXXXXX...                    ",
"                              ...XXXXXXXXXXXXXXXXX...                    ",
"                              ...XXXXXXXXXXXXXXXXX...                    ",
"                         ..XXXXXXXXXXXXXXXXXXooXXXOOO                    ",
"                         ..XXXXXXXXXXXXXXXXXXooXXXOOO                    ",
"                         ..XXXXXXXXXXXXXXXXXXooXXXOOO                    ",
"                         ..oooXXXXXXXXXooooooXX+++OOO                    ",
"                         ..oooXXXXXXXXXooooooXX+++OOO                    ",
"                         ..oooXXXXXXXXXooooooXX+++OOO                    ",
"                         @@XXXooooooXXXoooXXX++...@@@                    ",
"                         @@XXXooooooXXXoooXXX++...@@@                    ",
"                         @@ooo@@@XXXoooXXX+++..+++@@@                    ",
"                         @@ooo@@@XXXoooXXX+++..+++@@@                    ",
"                         @@ooo@@@XXXoooXXX+++..+++@@@                    ",
"                      OOO@@ooo@@@@@@ooo+++........@@@OOO                 ",
"                      OOO@@ooo@@@@@@ooo+++........@@@OOO                 ",
"                      OOO@@ooo@@@@@@ooo+++........@@@OOO                 ",
"                      OOO@@ooo@@@@@@++++++........+++OOO                 ",
"                      OOO@@ooo@@@@@@++++++........+++OOO                 ",
"                      OOO@@ooo@@@@@@++++++........+++OOO                 ",
"                      @@@@@XXX@@@@@@++++++OOO........OOO                 ",
"                      @@@@@XXX@@@@@@++++++OOO........OOO                 ",
"                      XXX..@@@@@@@@@++++++OOO..OOOOOO...                 ",
"                      XXX..@@@@@@@@@++++++OOO..OOOOOO...                 ",
"                      XXX..@@@@@@@@@++++++OOO..OOOOOO...                 ",
"                   ...@@@XXXXXXXXXXX...+++OOOOO......@@@                 ",
"                   ...@@@XXXXXXXXXXX...+++OOOOO......@@@                 ",
"                   ...@@@XXXXXXXXXXX...+++OOOOO......@@@                 ",
"                ...@@@XXXooXXX@@@@@@.........++......@@@OOO              ",
"                ...@@@XXXooXXX@@@@@@.........++......@@@OOO              ",
"                ...@@@XXXooXXX@@@@@@.........++......@@@OOO              ",
"                ...@@@XXXoo@@@@@@++++++++++++.....+++@@@OOO              ",
"                ...@@@XXXoo@@@@@@++++++++++++.....+++@@@OOO              ",
"                @@@@@@@@@XXXXX@@@++++++++++++........+++OOO              ",
"                @@@@@@@@@XXXXX@@@++++++++++++........+++OOO              ",
"                @@@@@@@@@XXXXX@@@++++++++++++........+++OOO              ",
"             ...@@@@@@XXXXX@@@@@@@@@+++++++++..OOO...+++...              ",
"             ...@@@@@@XXXXX@@@@@@@@@+++++++++..OOO...+++...              ",
"             ...@@@@@@XXXXX@@@@@@@@@+++++++++..OOO...+++...              ",
"             @@@@@@@@@XXXXX@@@@@@+++@@@++++++..OOO......OOOOO            ",
"             @@@@@@@@@XXXXX@@@@@@+++@@@++++++..OOO......OOOOO            ",
"             @@@@@@@@@XXXXX@@@@@@+++@@@++++++..OOO......OOOOO            ",
"          OOO@@@@@@@@@@@@@@@@@@@@@@@...++++++.....OOOOOO.....            ",
"          OOO@@@@@@@@@@@@@@@@@@@@@@@...++++++.....OOOOOO.....            ",
"          OOO@@@@@@@@@@@@@@@@@@@@@@@...++++++.....OOOOOO.....            ",
"          @@@XXXXXX...@@@@@@@@@@@@@@...++++++OO+++OOO...@@@..#########   ",
"          @@@XXXXXX...@@@@@@@@@@@@@@...++++++OO+++OOO...@@@..#########   ",
"          @@@XXXXXX...@@@@@@@@@@@@@@...++++++OO+++OOO...@@@..#########   ",
"     #####@@@XXXoooooo@@@@@......@@@@@@+++++++++++......+++@@...###      ",
"     #####@@@XXXoooooo@@@@@......@@@@@@+++++++++++......+++@@...###      ",
"     #####@@@XXXoooooo@@@@@......@@@@@@+++++++++++......+++@@...###      ",
"        ##@@@@@@oooooooooXXXXXXXX@@@+++++++++..OOO...++++++.....######## ",
"        ##@@@@@@oooooooooXXXXXXXX@@@+++++++++..OOO...++++++.....######## ",
"     ###..@@@@@@XXXooooooXX@@@@@@@@@+++++++++..............OO...######   ",
"     ###..@@@@@@XXXooooooXX@@@@@@@@@+++++++++..............OO...######   ",
"     ###..@@@@@@XXXooooooXX@@@@@@@@@+++++++++..............OO...######   ",
"  ######@@@@@@@@XXXoooXXX@@@@@+++++++++++++++...........OOO.....###      ",
"  ######@@@@@@@@XXXoooXXX@@@@@+++++++++++++++...........OOO.....###      ",
"  ######@@@@@@@@XXXoooXXX@@@@@+++++++++++++++...........OOO.....###      ",
"     #####OOOOOO@@@@@@@@@@@@@@@@@++++++++++++OOOOO.........OOOOO###      ",
"     #####OOOOOO@@@@@@@@@@@@@@@@@++++++++++++OOOOO.........OOOOO###      ",
"     #####OOOOOO@@@@@@@@@@@@@@@@@++++++++++++OOOOO.........OOOOO###      ",
"          ############........@@@......++++++OO......OOOOOO#####         ",
"          ############........@@@......++++++OO......OOOOOO#####         ",
"          ############........@@@......++++++OO......OOOOOO#####         ",
"                           #########OOOOOOOOOOOOOO#########  ###         ",
"                           #########OOOOOOOOOOOOOO#########  ###         "
};
