/* XPM */
static char *_27a269d665c444fde2dc45e7a3f2f2dNVNZyeZgftdFwfTU[] = {
/* columns rows colors chars-per-pixel */
"73 73 5 1 ",
"  c #0E0B0D",
". c #312F33",
"X c #242225",
"o c #131013",
"O c #ECECEC",
/* pixels */
"   ..XXX  ooooo...........................................ooooo  XXX..   ",
"   ..XXX  ooooo...........................................ooooo  XXX..   ",
"   ..XXX  ooooo...........................................ooooo  XXX..   ",
"   ..XXX  oo................................................ooo  XXX..   ",
"   ..XXX  oo................................................ooo  XXX..   ",
"   ..XXX  oo................................................ooo  XXX..   ",
"   ..XXX  oo................................................ooo  XXX..   ",
"   ..XXX  oo................................................ooo  XXX..   ",
"   ..XXX  oo................................................ooo  XXX..   ",
"   ..XXX  oo................................................ooo  XXX..   ",
"   ..XXX  oo................................................ooo  XXX..   ",
"   ..XXX  oo................................................ooo  XXX..   ",
"   ..XXX  oo................................................ooo  XXX..   ",
"   ..XXX  oo................................................ooo  XXX..   ",
"   ..XXX  oo................................................ooo  XXX..   ",
"   ..XXX  oo................................................ooo  XXX..   ",
"   ..XXX  oo................................................ooo  XXX..   ",
"   ..XXX  oo................................................ooo  XXX..   ",
"   ..XXX  oo................................................ooo  XXX..   ",
"OOO       oo................................................ooo       OOO",
"OOO       oo................................................ooo       OOO",
"OOO       oo................................................ooo       OOO",
"   ..XXX  oo................................................ooo  XXX..   ",
"   ..XXX  oo................................................ooo  XXX..   ",
"   ..XXX  oo................................................ooo  XXX..   ",
"   ..XXX  oo................................................ooo  XXX..   ",
"   ..XXX  oo................................................ooo  XXX..   ",
"   ..XXX  oo................................................ooo  XXX..   ",
"   ..XXX  oo................................................ooo  XXX..   ",
"   ..XXX  oo................................................ooo  XXX..   ",
"   ..XXX  oo................................................ooo  XXX..   ",
"   ..XXX  oo................................................ooo  XXX..   ",
"   ..XXX  oo................................................ooo  XXX..   ",
"   ..XXX  oo................................................ooo  XXX..   ",
"   ..XXX  oo.........................................     ..ooo  XXX..   ",
"   ..XXX  oo.........................................     ..ooo  XXX..   ",
"   ..XXX  oo.......................................  .....  ooo  XXX..   ",
"   ..XXX  oo.......................................  .....  ooo  XXX..   ",
"   ..XXX  oo.......................................  ooooo  ooo  XXX..   ",
"   ..XXX  oo.......................................  ooooo  ooo  XXX..   ",
"OOO       oo.......................................oo     ooooo       OOO",
"OOO       oo.......................................oo     ooooo       OOO",
"OOO       oo.......................................oo     ooooo       OOO",
"   ..XXX  oo.........................................ooooo..ooo  XXX..   ",
"   ..XXX  oo.........................................ooooo..ooo  XXX..   ",
"   ..XXX  oo................................................ooo  XXX..   ",
"   ..XXX  oo................................................ooo  XXX..   ",
"   ..XXX  oo................................................ooo  XXX..   ",
"   ..XXX  oo................................................ooo  XXX..   ",
"   ..XXX  oo................................................ooo  XXX..   ",
"   ..XXX  oo................................................ooo  XXX..   ",
"   ..XXX  oo................................................ooo  XXX..   ",
"   ..XXX  oo................................................ooo  XXX..   ",
"   ..XXX  oo................................................ooo  XXX..   ",
"   ..XXX  oo................................................ooo  XXX..   ",
"   ..XXX  oo................................................ooo  XXX..   ",
"   ..XXX  oo................................................ooo  XXX..   ",
"   ..XXX  oo................................................ooo  XXX..   ",
"   ..XXX  oo................................................ooo  XXX..   ",
"   ..XXX  oo................................................ooo  XXX..   ",
"   ..XXX  oo................................................ooo  XXX..   ",
"   ..XXX  oo................................................ooo  XXX..   ",
"   ..XXX  oo................................................ooo  XXX..   ",
"   ..XXX  oo................................................ooo  XXX..   ",
"   ..XXX  oo................................................ooo  XXX..   ",
"   ..XXX  oo................................................ooo  XXX..   ",
"   ..XXX  oo................................................ooo  XXX..   ",
"OOO       oo................................................ooo       OOO",
"OOO       oo................................................ooo       OOO",
"   ..XXX  oo................................................ooo  XXX..   ",
"   ..XXX  oo................................................ooo  XXX..   ",
"   ..XXX  oo................................................ooo  XXX..   ",
"   ..XXX  oo................................................ooo  XXX..   "
};
