/* XPM */
static char *_f06e3f2ee4644608c817e5d4027b474zJFpAjC1oxKFAttZ[] = {
/* columns rows colors chars-per-pixel */
"73 73 4 1 ",
"  c #3D2626",
". c #281B1F",
"X c #23171A",
"o c #0E0B0D",
/* pixels */
"  ........................XoooooXX...................................... ",
"  ........................XoooooXX...................................... ",
".........................................................................",
".........................................................................",
".........................................................................",
".........................................................................",
".........................................................................",
".........................................................................",
"XX                                                        XoooooXX      X",
"XX                                                        XoooooXX      X",
"ooooooooooooooooooooooooooooooooooooooooooooooooooooooooooooooooooooooooo",
"ooXXXXXXXXXXXXXXXXXXXXXXXXXXXXXXXXXXXXXXXXXXXXXXXXXXXXXXXXXXXXXXXXXXXXXXo",
"ooXXXXXXXXXXXXXXXXXXXXXXXXXXXXXXXXXXXXXXXXXXXXXXXXXXXXXXXXXXXXXXXXXXXXXXo",
"oo  ..................................................................  o",
"oo  ..................................................................  o",
"oo......................................................................o",
"oo......................................................................o",
"oo......................................................................o",
"oo......................................................................o",
"oo......................................................................o",
"oo......................................................................o",
"ooXX           XoooooXX            XXooooooXX                         XXo",
"ooXX           XoooooXX            XXooooooXX                         XXo",
"ooooooooooooooooooooooooooooooooooooooooooooooooooooooooooooooooooooooooo",
"XXXXXXXXXXXXXXXXXXXXXXXXXXXXXXXXXXXXXXXXXXXXXXXXXXXXXXXXXXXXXXXXXXXXXXXXX",
"XXXXXXXXXXXXXXXXXXXXXXXXXXXXXXXXXXXXXXXXXXXXXXXXXXXXXXXXXXXXXXXXXXXXXXXXX",
"  ...................................................................... ",
".........................................................................",
".........................................................................",
".........................................................................",
".........................................................................",
".........................................................................",
".........................................................................",
".........................................................................",
"XX                                                                      X",
"ooooooooooooooooooooooooooooooooooooooooooooooooooooooooooooooooooooooooo",
"ooooooooooooooooooooooooooooooooooooooooooooooooooooooooooooooooooooooooo",
"ooXXXXXXXXoooXXXXXXXXXXXXXXXXXXoooXXXXXXXXXXXXXXXXXXXXXXXXXXXXXXXXXXXXXXX",
"ooXXXXXXXXoooXXXXXXXXXXXXXXXXXXoooXXXXXXXXXXXXXXXXXXXXXXXXXXXXXXXXXXXXXXX",
"oo  .................................................................... ",
"oo.......................................................................",
"oo.......................................................................",
"oo.......................................................................",
"oo.......................................................................",
"oo.......................................................................",
"oo.......................................................................",
"oo.......................................................................",
"ooXX           XoooooXX         XXooooooXX                XoooXX        X",
"ooooooooooooooooooooooooooooooooooooooooooooooooooooooooooooooooooooooooo",
"ooooooooooooooooooooooooooooooooooooooooooooooooooooooooooooooooooooooooo",
"XXXXXXXXXXXXXXXXXXXXXXXXXXXXXXXXXXXXXXXXXXXXXXXXXXXXXXXXXXXXXXXXXXXXXXXXo",
"XXXXXXXXXXXXXXXXXXXXXXXXXXXXXXXXXXXXXXXXXXXXXXXXXXXXXXXXXXXXXXXXXXXXXXXXo",
"  ....................................................................  o",
"........................................................................o",
"........................................................................o",
"........................................................................o",
"........................................................................o",
"........................................................................o",
"........................................................................o",
"........................................................................o",
"XX                                                      XXooooXX      XXo",
"ooooooooooooooooooooooooooooooooooooooooooooooooooooooooooooooooooooooooo",
"ooooooooooooooooooooooooooooooooooooooooooooooooooooooooooooooooooooooooo",
"XXXXXXXXoooooooXXXXXXXXXXXXXXoooooXXXXXXXXXXXXXXXXXXXXXXXXXXXXXXXXXXXXXXX",
"  ...................................................................... ",
"  ...................................................................... ",
".........................................................................",
".........................................................................",
".........................................................................",
".........................................................................",
".........................................................................",
".........................................................................",
"XX                                 XXooooooXX      XXoooooX             X"
};
