/* XPM */
static char *_df6c6d9551241fdd57649b2ad3120f76TOa9YvhphspZp17[] = {
/* columns rows colors chars-per-pixel */
"73 73 4 1 ",
"  c #ECECEC",
". c #0E0B0D",
"X c #312F33",
"o c #242225",
/* pixels */
"   ......................................................................",
" ..XXooo..........................................................ooXX...",
" ..XXooo..........................................................ooXX...",
" ..XXooo..........................................................ooXX...",
" ..XXooo..........................................................ooXX...",
" ..XXooo..........................................................ooXX...",
" ..XXooo..........................................................ooXX...",
" ..XXooo..........................................................ooXX...",
" ..XXooo..........................................................ooXX...",
" ..XXooo..........................................................ooXX...",
" ..XXooo..........................................................ooXX...",
" ..XXooo..........................................................ooXX...",
" ..XXooo..........................................................ooXX...",
" ..XXooo..........................................................ooXX...",
" ..XXooo..........................................................ooXX...",
" ..XXooo..........................................................ooXX...",
" ..XXooo..........................................................ooXX...",
" ..XXooo..........................................................ooXX...",
" ..XXooo..........................................................ooXX...",
" ..XXooo..........................................................ooXX...",
" ..XXooo..........................................................ooXX...",
"   ...................................................................   ",
"   ...................................................................   ",
" ..XXooo..........................................................ooXX...",
" ..XXooo..........................................................ooXX...",
" ..XXooo..........................................................ooXX...",
" ..XXooo..........................................................ooXX...",
" ..XXooo..........................................................ooXX...",
" ..XXooo..........................................................ooXX...",
" ..XXooo..........................................................ooXX...",
" ..XXooo..........................................................ooXX...",
" ..XXooo..........................................................ooXX...",
" ..XXooo..........................................................ooXX...",
" ..XXooo..........................................................ooXX...",
" ..XXooo..........................................................ooXX...",
" ..XXooo..........................................................ooXX...",
" ..XXooo..........................................................ooXX...",
" ..XXooo..........................................................ooXX...",
" ..XXooo..........................................................ooXX...",
" ..XXooo..........................................................ooXX...",
" ..XXooo..........................................................ooXX...",
" ..XXooo..........................................................ooXX...",
"   ......................................................................",
"   ......................................................................",
" ..XXooo..........................................................ooXX...",
" ..XXooo..........................................................ooXX...",
" ..XXooo..........................................................ooXX...",
" ..XXooo..........................................................ooXX...",
" ..XXooo..........................................................ooXX...",
" ..XXooo..........................................................ooXX...",
" ..XXooo..........................................................ooXX...",
" ..XXooo..........................................................ooXX...",
" ..XXooo..........................................................ooXX...",
" ..XXooo..........................................................ooXX...",
" ..XXooo..........................................................ooXX...",
" ..XXooo..........................................................ooXX...",
" ..XXooo..........................................................ooXX...",
" ..XXooo..........................................................ooXX...",
" ..XXooo..........................................................ooXX...",
" ..XXooo..........................................................ooXX...",
" ..XXooo..........................................................ooXX...",
" ..XXooo..........................................................ooXX...",
" ..XXooo..........................................................ooXX...",
" ..XXooo..........................................................ooXX...",
" ..XXooo..........................................................ooXX...",
" ..XXooo..........................................................ooXX...",
" ..XXooo..........................................................ooXX...",
" ..XXooo..........................................................ooXX...",
" ..XXooo..........................................................ooXX...",
"   ...................................................................   ",
"   ...................................................................   ",
" ..XXooo..........................................................ooXX...",
" ..XXooo..........................................................ooXX..."
};
