/* XPM */
static char *_2d143af9c384f27b1a4593dc25a6cb28tzz8s2yJiY0TGhG[] = {
/* columns rows colors chars-per-pixel */
"73 73 192 2 ",
"   c None",
".  c #04090F",
"X  c #080C0F",
"o  c #050E13",
"O  c #090C13",
"+  c #090F18",
"@  c #1C0C17",
"#  c #140A15",
"$  c #06121A",
"%  c #09151D",
"&  c #09151A",
"*  c #1C1212",
"=  c #1F1518",
"-  c #260E0D",
";  c #290D0C",
":  c #24100E",
">  c #2C120D",
",  c #3D120F",
"<  c #240F10",
"1  c #280E11",
"2  c #240C1B",
"3  c #2D0D1D",
"4  c #390F13",
"5  c #241212",
"6  c #2B1315",
"7  c #23171B",
"8  c #2E1718",
"9  c #321414",
"0  c #3B1213",
"q  c #3E1A1C",
"w  c #282419",
"e  c #0C1B24",
"r  c #0C1C29",
"t  c #091925",
"y  c #141D22",
"u  c #260D20",
"i  c #340C20",
"p  c #2C172D",
"a  c #391828",
"s  c #1A242C",
"d  c #2F2227",
"f  c #322A25",
"g  c #3F2228",
"h  c #3E2C2B",
"j  c #332726",
"k  c #3E383D",
"l  c #2C3439",
"z  c #461716",
"x  c #491713",
"c  c #471619",
"v  c #47141B",
"b  c #72161D",
"n  c #483119",
"m  c #5E3D1F",
"M  c #643A1C",
"N  c #693D1D",
"B  c #64371D",
"V  c #4B0C25",
"C  c #5D0F24",
"Z  c #5E0D2A",
"A  c #560E2E",
"S  c #451E25",
"D  c #491D25",
"F  c #461F28",
"G  c #4A1C2A",
"H  c #5A1224",
"J  c #5B102D",
"K  c #5D182B",
"L  c #6D0E2D",
"P  c #640D2B",
"I  c #760E2E",
"U  c #66152D",
"Y  c #6E1726",
"T  c #741925",
"R  c #7A0E32",
"E  c #730C31",
"W  c #6F1234",
"Q  c #751031",
"!  c #7A1336",
"~  c #7E1F30",
"^  c #422026",
"/  c #442329",
"(  c #5D272D",
")  c #5E3A24",
"_  c #5B3B2A",
"`  c #5B2C33",
"'  c #473935",
"]  c #543B37",
"[  c #593837",
"{  c #633A20",
"}  c #6B3E23",
"|  c #782630",
" . c #6D452C",
".. c #6C4224",
"X. c #724325",
"o. c #72452A",
"O. c #644536",
"+. c #724832",
"@. c #463E42",
"#. c #743E44",
"$. c #793E46",
"%. c #773F49",
"&. c #7A3F48",
"*. c #713640",
"=. c #6C4B47",
"-. c #764046",
";. c #744149",
":. c #795149",
">. c #7E5450",
",. c #765552",
"<. c #75676A",
"1. c #811E2B",
"2. c #840D35",
"3. c #8C0A36",
"4. c #8D0A39",
"5. c #840F38",
"6. c #940B35",
"7. c #9B0D36",
"8. c #910738",
"9. c #940A39",
"0. c #9B0C39",
"q. c #81143B",
"w. c #9A1635",
"e. c #A20F35",
"r. c #A10E3B",
"t. c #AA1235",
"y. c #A41239",
"u. c #AC143A",
"i. c #AA1B35",
"p. c #B41435",
"a. c #B4173A",
"s. c #BA163A",
"d. c #B6183A",
"f. c #BB1839",
"g. c #842338",
"h. c #9F2235",
"j. c #9E2238",
"k. c #A4213A",
"l. c #BF203D",
"z. c #A6363F",
"x. c #CD1D37",
"c. c #C61D3A",
"v. c #CC1D3A",
"b. c #D01D36",
"n. c #D11C39",
"m. c #C5223C",
"M. c #CA203B",
"N. c #CC243B",
"B. c #811F42",
"V. c #882C45",
"C. c #BB2841",
"Z. c #C31B41",
"A. c #C42240",
"S. c #CB3746",
"D. c #935D46",
"F. c #9C4854",
"G. c #985D56",
"H. c #86584D",
"J. c #A05055",
"K. c #B85D5A",
"L. c #8E665E",
"P. c #9B6259",
"I. c #90695F",
"U. c #A66959",
"Y. c #B76A5D",
"T. c #BA715E",
"R. c #996C62",
"E. c #AE6F60",
"W. c #AB736B",
"Q. c #B57464",
"!. c #BA7264",
"~. c #B2776B",
"^. c #B9776A",
"/. c #BB796C",
"(. c #B87867",
"). c #B27B73",
"_. c #BD7E74",
"`. c #C4464D",
"'. c #C25C59",
"]. c #AE806B",
"[. c #BD8273",
"{. c #B58377",
"}. c #C1867A",
"|. c #B98B88",
" X c #BD948B",
".X c #C48D84",
"XX c #C88D86",
"oX c #C59286",
"OX c #C99184",
"+X c #C3938A",
"@X c #C89289",
"#X c #C09390",
/* pixels */
"                                                                                                                                                  ",
"                                                                                                                                                  ",
"                                                                                                                                                  ",
"                                                                                                                                                  ",
"                                                                                                                                                  ",
"                                                                                                                                                  ",
"                                                                                                                                                  ",
"                                                                                                                                                  ",
"                                                                                                                                                  ",
"                                                                                                                                                  ",
"                                                                                                                                                  ",
"                                                                                                                                                  ",
"                                                                                                                                                  ",
"                                                                                     .o.o. . . .O.                                                ",
"                                                                                O.o.X.X.o.X.M N } _                                               ",
"                                                                                 .X.X.X.X.} M N } _                                               ",
"                                                                                 .N B M M M M D.D.)                                               ",
"                                                                                X.N B B M n w H.E.                                                ",
"                                                                                ..N B m X.O.k L.{.                                                ",
"                                                                                ) M m N U.[..X.X X                                                ",
"                                                                                m M +.].}.XX@X[.).                                                ",
"                                                                              s f f ] |.@X.X[.(.W.                                                ",
"                                                                          e r r r t l |..X}.!.Q.~.                                                ",
"                                                                        X $ $ $ r t s k R./.~.                                                    ",
"                                                                      g.H v 2 o % t t e @.=.=.                                                    ",
"                                                                  N.m.v.l.6.V @ O o o t e y y                                                     ",
"                                                            C.m.N.x.v.v.Z.7.5.J # O o + O t e                                                     ",
"                                                          G c.x.M.M.p.e.r.6.y.w.P i o o O O +                                                     ",
"                                                        e a u.a.a.a.7.3.8.e.f.c.u.I 3 O o o $                                                     ",
"                                                        r p 2.3.4.3.3.3.6.c.v.x.Z.u.L # o o +                                                     ",
"                                                        h u 2.4.3.3.3.0.s.v.x.x.n.a.2.Z @ 2 A                                                     ",
"                                                      _.,.g Z 2.9.e.e.p.v.x.b.c.s.0.3.4.V V J a                                                   ",
"                                                   X+XoX[.G.7 R u.v.n.b.x.c.c.a.8.3.8.4.4.Z * s s                                                 ",
"                                                   X@XoX[.!.J.z.v.v.x.v.c.e.0.0.4.4.4.4.3.V.P.P.L.                                                ",
"                                                  #XOXoX[.Y.`.N.x.c.p.t.r.4.4.4.4.4.4.4.q.J.!.!.Q.                                                ",
"                                                #X+XOXXX[.K.M.c.v.c.r.4.8.4.8.4.8.2.4.4.    Q.Q.T.!.!.                                            ",
"                                                #XoXoX@X[.K.m.v.c.c.r.3.4.4.4.8.8.3.3.3.    Q.Q.T.!.!.                                            ",
"                                                +X@XOX[._.  7.7.7.7.6.3.8.3.4.4.8.3.4.2.      W.Q.T.~.O.. o . ] ).                                ",
"                                                +XoX.X~.    H H H H H L 4.4.4.4.4.4.5.          ~.E.=.d 7 ] ] =.                                  ",
"                                                +XoXXX(.    9 9 9 9 9 V I R I ! V.q.!             R.7 X d E.W.                                    ",
"                                                 X X|.~.    D D D c z 0 0 4 4 / <.                    O d W.W.                                    ",
"                                                k @.@.h     j.k.k.k.h.T > > ; h <.                                                                ",
"                                                e r t o a   M.M.x.N.M.i.b b Y | F.F.                                                              ",
"                                                y r e o Y v.v.n.b.x.x.M.m.x.M.m.M.m.M.A.                                                          ",
"                                                ,.>.>.:.z.b.x.v.v.n.n.v.v.b.x.v.n.v.x.x.N.                                                        ",
"                                                  (.^.'.S.v.b.x.x.x.v.b.v.n.v.c.f.d.f.d.u.C.                                                      ",
"                                                      m.x.v.c.c.x.c.c.c.c.c.c.d.6.3.4.4.2.V.%.                                                    ",
"                                                      A.v.c.7.0.6.7.6.0.6.0.7.9.3.8.4.4.*.V.%.%.                                                  ",
"                                                      | 1.T U U Q 8.3.3.4.8.3.q.  Q U U *.-.$.$.;.                                                ",
"                                                      D S F D F K ! 2.2.2.2.2.      ^ D ` #.$.$.-.;.                                              ",
"                                                      F S S D S / D                   ^ / ` $.-.$.-.;.                                            ",
"                                                    ^ F S S D F F                       S ` ;.-.$.-.;.                                            ",
"                                                  ^ F D D S S D D                       c ` &.$.$.-.;.                                            ",
"                                                  g F D D S F F                         v ( #.-.#.-.;.                                            ",
"                                              / / F D D D D F                           z z z q q q                                               ",
"                                            6 q F D D D F D g                           z , - - - -                                               ",
"                                          5 - > c S a ^ ^ ^                           z x 0 - - - 5                                               ",
"                                          5 - - > ; >                                 z x 0 - - :                                                 ",
"                                          ; - - : : 5                                 0 x , ; : :                                                 ",
"                                        5 ; ; - -                                     ; 0 0 ; : *                                                 ",
"                                        : - - 5                                         1 ; ;                                                     ",
"                                6 6 6 6 - ; 1                                             < :                                                     ",
"                                - - - ; - -                                                 *                                                     ",
"                                - ; - - -                                                                                                         ",
"                                  : : - ; 1                                                                                                       ",
"                                  5 5 5 1 1                                                                                                       ",
"                                                                                                                                                  ",
"                                                                                                                                                  ",
"                                                                                                                                                  ",
"                                                                                                                                                  ",
"                                                                                                                                                  ",
"                                                                                                                                                  ",
"                                                                                                                                                  "
};
